<svg xmlns="http://www.w3.org/2000/svg" viewBox="0 0 25.63 19.52"><defs><style>.cls-1{fill:#4e5e6e;}</style></defs><title>letter</title><g id="Calque_2" data-name="Calque 2"><g id="DESKTOP"><g id="Accueil"><g id="Nous_rendre_visite" data-name="Nous rendre visite"><path class="cls-1" d="M23.38,0H2.25A2.25,2.25,0,0,0,0,2.25v15a2.25,2.25,0,0,0,2.25,2.25H23.38a2.25,2.25,0,0,0,2.25-2.25v-15A2.26,2.26,0,0,0,23.38,0Zm-.31,1.5L12.86,11.71,2.57,1.5ZM1.5,17V2.56L8.73,9.73ZM2.56,18,9.8,10.78l2.54,2.52a.75.75,0,0,0,1.06,0l2.47-2.48,7.2,7.2ZM24.13,17l-7.2-7.2,7.2-7.2Z"/></g></g></g></g></svg>