<svg xmlns="http://www.w3.org/2000/svg" viewBox="0 0 255.07 57"><defs><style>.cls-1{fill:#f19305;}.cls-2{fill:#77b760;}.cls-3{fill:#1a171b;}</style></defs><title>logo</title><g id="Calque_2" data-name="Calque 2"><g id="DESKTOP"><g id="Accueil"><g id="Header"><path class="cls-1" d="M40,11.85,33.07,0,0,57s2.35-1.79,6.12-4.21C8,47.06,15.86,28.46,40,11.85Z"/><path class="cls-2" d="M44.72,19.79c-5.17.92-21.27,5.73-35.9,31.25,13.76-8.43,40-21,52.19-3.54Z"/><path class="cls-3" d="M85.42,37.8a5.16,5.16,0,0,1-2.54,2,9.41,9.41,0,0,1-3.78.75,8.48,8.48,0,0,1-5.8-1.82,6.55,6.55,0,0,1-2.11-5.25,7.26,7.26,0,0,1,3-6.2C76.16,25.76,79,25,82.64,25a10.19,10.19,0,0,1,2.22.32c0-2.66-1.71-4-5.12-4a11.73,11.73,0,0,0-5,.95l-1.15-4.13a15,15,0,0,1,6.55-1.32c3.5,0,6,.8,7.68,2.39s2.42,4.57,2.42,9v4.85c0,3.06.6,5,1.83,5.72a3,3,0,0,1-1.47,1.44,7,7,0,0,1-1.87.27,2.85,2.85,0,0,1-2.07-.87A4.62,4.62,0,0,1,85.42,37.8Zm-.52-8.47a15.31,15.31,0,0,0-2.06-.27c-4.26,0-6.36,1.39-6.36,4.17q0,3.1,3.57,3.1c3.22,0,4.85-1.63,4.85-4.85Z"/><path class="cls-3" d="M98.9,21.58H96.23V17.29H98.9V12.68l5.32-1.95v6.6h6.28v4.25h-6.28v10a5.84,5.84,0,0,0,.76,3.46,3.18,3.18,0,0,0,2.7,1,6.88,6.88,0,0,0,3.58-1v4.85a16.56,16.56,0,0,1-5.29.63,6.85,6.85,0,0,1-5.25-1.94,7.59,7.59,0,0,1-1.82-5.49V21.58Z"/><path class="cls-3" d="M116,28.66a12,12,0,0,1,3-8.51,10.28,10.28,0,0,1,8-3.3c3.46,0,6.16,1,8.07,3.14s2.86,5,2.86,8.63A12.37,12.37,0,0,1,135,37.28a10.24,10.24,0,0,1-8,3.22c-3.46,0-6.16-1.07-8.07-3.26A12.36,12.36,0,0,1,116,28.66Zm5.52,0c0,5.05,1.83,7.55,5.45,7.55a4.67,4.67,0,0,0,4-2,9.08,9.08,0,0,0,1.47-5.6c0-5-1.83-7.47-5.4-7.47a4.72,4.72,0,0,0-4,1.94A8.9,8.9,0,0,0,121.55,28.66Z"/><path class="cls-3" d="M145.28,8.82l5.33-1.27V33.19c0,2.82.83,4.49,2.54,5a4.32,4.32,0,0,1-4.21,2.34c-2.43,0-3.62-1.67-3.62-5l0-26.72Z"/><path class="cls-3" d="M172.19,14.75l-.36.91a2.87,2.87,0,0,0-1.63-.36,2,2,0,0,0-1.66.92,3.73,3.73,0,0,0-.64,2.3,3.4,3.4,0,0,0,.64,2.19,2.16,2.16,0,0,0,3.37,0l.6.83a3.25,3.25,0,0,1-2.42,1,2.89,2.89,0,0,1-2.43-1.12,4.5,4.5,0,0,1-.87-2.94,4.49,4.49,0,0,1,1-2.94,3,3,0,0,1,2.46-1.15A3.61,3.61,0,0,1,172.19,14.75Z"/><path class="cls-3" d="M173.86,19.48a3.1,3.1,0,0,1,.72-2.15,2.65,2.65,0,0,1,3.81,0,3.33,3.33,0,0,1,.68,2.19,3.29,3.29,0,0,1-.72,2.22,2.33,2.33,0,0,1-1.9.8,2.26,2.26,0,0,1-1.91-.84A3.3,3.3,0,0,1,173.86,19.48Zm1.07,0c0,1.43.52,2.18,1.56,2.18a1.3,1.3,0,0,0,1.11-.59,2.7,2.7,0,0,0,.4-1.59c0-1.43-.52-2.15-1.51-2.15a1.35,1.35,0,0,0-1.12.56A2.41,2.41,0,0,0,174.93,19.48Z"/><path class="cls-3" d="M184.28,22.38V19a2.28,2.28,0,0,0-.28-1.31,1.18,1.18,0,0,0-1-.36,2,2,0,0,0-.75.2,2.56,2.56,0,0,0-.6.52v4.33h-1V16.62h.71l.32.75a1.83,1.83,0,0,1,1.67-.87c1.27,0,1.91.75,1.91,2.3v3.58Z"/><path class="cls-3" d="M186.94,22.06l.36-.95a2.54,2.54,0,0,0,1.39.55c.63,0,.95-.28.95-.79s-.32-.72-.91-1a8.59,8.59,0,0,1-1-.47,2,2,0,0,1-.43-.4,2.69,2.69,0,0,1-.28-.44,2,2,0,0,1-.08-.51,1.31,1.31,0,0,1,.52-1.12,2.06,2.06,0,0,1,1.35-.39,4,4,0,0,1,1.59.39l-.28,1a1.93,1.93,0,0,0-1.23-.48,1.17,1.17,0,0,0-.64.16.55.55,0,0,0-.24.44.91.91,0,0,0,.64.83l.71.32a2.57,2.57,0,0,1,1,.71,1.66,1.66,0,0,1,.32,1,1.57,1.57,0,0,1-.56,1.23,2.44,2.44,0,0,1-1.51.44A4,4,0,0,1,186.94,22.06Z"/><path class="cls-3" d="M197.19,19.6H193a2.11,2.11,0,0,0,.56,1.55,1.76,1.76,0,0,0,1.27.47,2.11,2.11,0,0,0,1.47-.51l.44.75a2,2,0,0,1-.72.4,3.68,3.68,0,0,1-1.35.24,2.39,2.39,0,0,1-1.83-.76,2.94,2.94,0,0,1-.83-2.18,3.11,3.11,0,0,1,.87-2.31,2.45,2.45,0,0,1,1.83-.75,2.61,2.61,0,0,1,2,.71,2.45,2.45,0,0,1,.67,1.79A3.33,3.33,0,0,0,197.19,19.6Zm-2.5-2.27a1.64,1.64,0,0,0-1.15.44,1.7,1.7,0,0,0-.52,1.07h3.22a1.5,1.5,0,0,0-1.55-1.51Z"/><path class="cls-3" d="M199.42,22.38V17.45h-.79v-.87h1.82v5.8Zm.56-7.95a.62.62,0,0,1,.43.2.57.57,0,0,1,0,.87.62.62,0,0,1-.43.2.62.62,0,0,1-.44-1.07A.47.47,0,0,1,200,14.43Z"/><path class="cls-3" d="M202.68,20.75V14.23h1v6.36a.86.86,0,0,0,.28.72,1.11,1.11,0,0,0,.72.27v.92C203.36,22.5,202.68,21.9,202.68,20.75Z"/><path class="cls-3" d="M206.06,22.06l.36-.95a2.54,2.54,0,0,0,1.39.55c.63,0,.95-.28.95-.79s-.32-.72-.91-1a8.59,8.59,0,0,1-1-.47,1.83,1.83,0,0,1-.43-.4,2.69,2.69,0,0,1-.28-.44,2,2,0,0,1-.08-.51,1.33,1.33,0,0,1,.51-1.12,2.11,2.11,0,0,1,1.36-.39,4,4,0,0,1,1.59.39l-.28,1a1.93,1.93,0,0,0-1.23-.48,1.17,1.17,0,0,0-.64.16.55.55,0,0,0-.24.44.91.91,0,0,0,.64.83l.71.32a2.57,2.57,0,0,1,1,.71,1.65,1.65,0,0,1,.31,1,1.57,1.57,0,0,1-.55,1.23,2.44,2.44,0,0,1-1.51.44A4,4,0,0,1,206.06,22.06Z"/><path class="cls-3" d="M221.52,17.49V18a6.33,6.33,0,0,1-.12,1.15,3.58,3.58,0,0,1-.48,1.23l2,2h-1.31l-1.23-1.19a3.61,3.61,0,0,1-1.27,1.07,3.23,3.23,0,0,1-1.36.32,2.91,2.91,0,0,1-1.86-.64,2.22,2.22,0,0,1-.76-1.71,2.11,2.11,0,0,1,.16-.87,3.19,3.19,0,0,1,.32-.64,3,3,0,0,1,.47-.48,6.31,6.31,0,0,1,.56-.39,2.66,2.66,0,0,1-.83-.8,1.92,1.92,0,0,1-.28-1,1.31,1.31,0,0,1,.16-.68,2,2,0,0,1,.43-.59,2.46,2.46,0,0,1,.72-.44,2.4,2.4,0,0,1,.95-.16,2.26,2.26,0,0,1,1.51.48,1.46,1.46,0,0,1,.6,1.19,2.75,2.75,0,0,1-.08.52,1,1,0,0,1-.24.51,3.16,3.16,0,0,1-.47.52,2.06,2.06,0,0,1-.84.4l2,2,.12-.48a2.46,2.46,0,0,0,0-.56V17.41h1.07Zm-1.63,3.18-2.58-2.5a.74.74,0,0,0-.32.19.94.94,0,0,0-.32.36,1.24,1.24,0,0,0-.24.52,1.84,1.84,0,0,0-.08.67,1.75,1.75,0,0,0,.48,1.28,1.81,1.81,0,0,0,1.31.47,2.29,2.29,0,0,0,1-.24A2.68,2.68,0,0,0,219.89,20.67Zm-1-4.73a1.05,1.05,0,0,0-.32-.8,1.09,1.09,0,0,0-.76-.27,1.15,1.15,0,0,0-.79.31,1.19,1.19,0,0,0-.32.8,1.32,1.32,0,0,0,.2.71,4.24,4.24,0,0,0,.91.76,1.7,1.7,0,0,0,.8-.56A1.42,1.42,0,0,0,218.86,15.94Z"/><path class="cls-3" d="M168.73,35.5h-1.59V27.59c1,0,1.67,0,2,0a3.42,3.42,0,0,1,2.63,1,3.73,3.73,0,0,1,.95,2.66C172.67,34.06,171.36,35.5,168.73,35.5Zm-.51-6.92V34.5a6.07,6.07,0,0,0,.91,0,2.17,2.17,0,0,0,1.79-.83,3.73,3.73,0,0,0,.64-2.35c0-1.87-.84-2.82-2.51-2.82A3.27,3.27,0,0,0,168.22,28.58Z"/><path class="cls-3" d="M179.27,32.71h-4.18a2.08,2.08,0,0,0,.56,1.55,1.74,1.74,0,0,0,1.27.48,2.05,2.05,0,0,0,1.47-.52l.44.76a2,2,0,0,1-.72.4,3.65,3.65,0,0,1-1.35.23,2.4,2.4,0,0,1-1.83-.75,3,3,0,0,1-.83-2.19,3.09,3.09,0,0,1,.87-2.3,2.47,2.47,0,0,1,1.83-.76,2.6,2.6,0,0,1,1.95.72,2.42,2.42,0,0,1,.68,1.79A3.23,3.23,0,0,0,179.27,32.71Zm-2.51-2.22a1.7,1.7,0,0,0-1.15.43,1.73,1.73,0,0,0-.52,1.08h3.22a1.39,1.39,0,0,0-.39-1A1.33,1.33,0,0,0,176.76,30.49Zm1.35-3.74-1.23,1.79h-.75l.91-1.79Z"/><path class="cls-3" d="M183,35.61h-.27l-2.47-5.92h1.11L183,33.75l1.55-4.06h1.08Z"/><path class="cls-3" d="M191.79,32.71h-4.18a2.08,2.08,0,0,0,.56,1.55,1.74,1.74,0,0,0,1.27.48,2.05,2.05,0,0,0,1.47-.52l.44.76a2,2,0,0,1-.71.4,3.74,3.74,0,0,1-1.36.23,2.36,2.36,0,0,1-1.82-.75,2.93,2.93,0,0,1-.84-2.19,3.06,3.06,0,0,1,.88-2.3,2.43,2.43,0,0,1,1.82-.76,2.6,2.6,0,0,1,2,.72,2.42,2.42,0,0,1,.68,1.79C191.87,32.32,191.87,32.51,191.79,32.71Zm-2.47-2.22a1.78,1.78,0,0,0-1.15.43,1.73,1.73,0,0,0-.52,1.08h3.22a1.47,1.47,0,0,0-1.55-1.51Z"/><path class="cls-3" d="M193.58,33.87V27.35h1v6.36a.84.84,0,0,0,.28.71,1.06,1.06,0,0,0,.71.28v.91C194.25,35.61,193.58,35,193.58,33.87Z"/><path class="cls-3" d="M197,32.59a3.07,3.07,0,0,1,.71-2.14,2.63,2.63,0,0,1,3.82,0,3.87,3.87,0,0,1,0,4.41,2.36,2.36,0,0,1-1.91.79,2.27,2.27,0,0,1-1.91-.83A3.33,3.33,0,0,1,197,32.59Zm1.07,0c0,1.44.52,2.19,1.55,2.19a1.27,1.27,0,0,0,1.11-.6,2.66,2.66,0,0,0,.4-1.59c0-1.43-.52-2.14-1.51-2.14a1.33,1.33,0,0,0-1.11.55A2.7,2.7,0,0,0,198,32.59Z"/><path class="cls-3" d="M204.83,35.18v2.58h-1v-8h1v.48a1.9,1.9,0,0,1,1.39-.6,2.36,2.36,0,0,1,1.91.76,3.23,3.23,0,0,1,.67,2.26,3.43,3.43,0,0,1-.67,2.15,2.44,2.44,0,0,1-2,.83,3,3,0,0,1-.8-.11A.86.86,0,0,1,204.83,35.18Zm0-4.22v3.38a1.09,1.09,0,0,0,.39.28,1.61,1.61,0,0,0,.6.12c1.27,0,1.91-.71,1.91-2.19a2.45,2.45,0,0,0-.44-1.59,1.86,1.86,0,0,0-1.47-.51,1,1,0,0,0-.52.16A2.86,2.86,0,0,0,204.83,31Z"/><path class="cls-3" d="M211.54,35.18v2.58h-1v-8h1v.48a1.94,1.94,0,0,1,1.39-.6,2.33,2.33,0,0,1,1.91.76,3.19,3.19,0,0,1,.68,2.26,3.37,3.37,0,0,1-.68,2.15,2.41,2.41,0,0,1-2,.83,3,3,0,0,1-.8-.11A.89.89,0,0,1,211.54,35.18Zm0-4.22v3.38a1.14,1.14,0,0,0,.4.28,1.61,1.61,0,0,0,.6.12c1.27,0,1.91-.71,1.91-2.19A2.45,2.45,0,0,0,214,31a1.88,1.88,0,0,0-1.47-.51,1,1,0,0,0-.52.16A3,3,0,0,0,211.54,31Z"/><path class="cls-3" d="M222.08,32.71H217.9a2.08,2.08,0,0,0,.56,1.55,1.74,1.74,0,0,0,1.27.48,2.05,2.05,0,0,0,1.47-.52l.44.76a2,2,0,0,1-.72.4,3.65,3.65,0,0,1-1.35.23,2.4,2.4,0,0,1-1.83-.75,3,3,0,0,1-.83-2.19,3.09,3.09,0,0,1,.87-2.3,2.47,2.47,0,0,1,1.83-.76,2.6,2.6,0,0,1,1.95.72,2.42,2.42,0,0,1,.68,1.79C222.16,32.32,222.16,32.51,222.08,32.71Zm-2.47-2.22a1.7,1.7,0,0,0-1.15.43,1.73,1.73,0,0,0-.52,1.08h3.22a1.47,1.47,0,0,0-1.55-1.51Z"/><path class="cls-3" d="M230.5,35.5V31.84c0-.92-.39-1.35-1.19-1.35a1.35,1.35,0,0,0-1.15.75V35.5h-1V31.4a.82.82,0,0,0-.32-.67,1.39,1.39,0,0,0-.84-.24,1.25,1.25,0,0,0-.67.24,1.11,1.11,0,0,0-.48.51V35.5h-1V29.73h.67l.36.68a1.79,1.79,0,0,1,1.47-.8,2,2,0,0,1,1.75.8,1.28,1.28,0,0,1,.64-.56,2.06,2.06,0,0,1,.95-.24,1.76,1.76,0,0,1,1.39.52,2.14,2.14,0,0,1,.48,1.51V35.5Z"/><path class="cls-3" d="M238.41,32.71h-4.17a2.08,2.08,0,0,0,.56,1.55,1.71,1.71,0,0,0,1.27.48,2.09,2.09,0,0,0,1.47-.52L238,35a2,2,0,0,1-.72.4,3.68,3.68,0,0,1-1.35.23,2.53,2.53,0,0,1-1.87-.75,2.92,2.92,0,0,1-.83-2.19,3.05,3.05,0,0,1,.87-2.3,2.45,2.45,0,0,1,1.83-.76,2.62,2.62,0,0,1,2,.72,2.45,2.45,0,0,1,.67,1.79Zm-2.5-2.22a1.66,1.66,0,0,0-1.15.43,1.73,1.73,0,0,0-.52,1.08h3.22a1.49,1.49,0,0,0-1.55-1.51Z"/><path class="cls-3" d="M243.66,35.5V32.12a2.26,2.26,0,0,0-.28-1.31,1.13,1.13,0,0,0-.91-.36,2,2,0,0,0-.76.2,2.47,2.47,0,0,0-.59.51V35.5h-1V29.73h.72l.32.76a1.81,1.81,0,0,1,1.67-.88c1.27,0,1.9.76,1.9,2.31V35.5Z"/><path class="cls-3" d="M247.08,30.53h-.68v-.8h.68V28.54l1-.4v1.59h1.59v.8h-1.59v2.86a1.7,1.7,0,0,0,.24,1,1,1,0,0,0,.8.32,2.32,2.32,0,0,0,.83-.2l.16.88a5.1,5.1,0,0,1-1.39.16,1.46,1.46,0,0,1-1.15-.52,1.81,1.81,0,0,1-.48-1.27l0-3.26Z"/><path class="cls-3" d="M251.25,35.18l.36-1a2.51,2.51,0,0,0,1.39.56c.64,0,1-.28,1-.79s-.32-.72-.92-1a9.58,9.58,0,0,1-.95-.48,1.81,1.81,0,0,1-.44-.39,2.69,2.69,0,0,1-.28-.44,2,2,0,0,1-.08-.52,1.31,1.31,0,0,1,.52-1.11,2.09,2.09,0,0,1,1.35-.4,4,4,0,0,1,1.59.4l-.28.95a2,2,0,0,0-1.23-.47,1,1,0,0,0-.6.16.52.52,0,0,0-.23.43A.9.9,0,0,0,253,32l.72.32a2.41,2.41,0,0,1,1,.71,1.66,1.66,0,0,1,.32,1,1.57,1.57,0,0,1-.56,1.23,2.42,2.42,0,0,1-1.51.43A4.43,4.43,0,0,1,251.25,35.18Z"/></g></g></g></g></svg>