<svg xmlns="http://www.w3.org/2000/svg" viewBox="0 0 26.18 26.21"><defs><style>.cls-1{fill:#4e5e6e;}</style></defs><title>tel</title><g id="Calque_2" data-name="Calque 2"><g id="DESKTOP"><g id="Accueil"><g id="Nous_rendre_visite" data-name="Nous rendre visite"><path class="cls-1" d="M20.7,16.24a2.59,2.59,0,0,0-1.87-.86,2.64,2.64,0,0,0-1.89.85L15.19,18l-.43-.23c-.2-.1-.39-.19-.55-.29a19.05,19.05,0,0,1-4.55-4.15A10.78,10.78,0,0,1,8.17,11c.45-.41.87-.84,1.28-1.26.16-.15.31-.31.46-.47a2.53,2.53,0,0,0,0-3.83L8.4,3.88l-.51-.52c-.33-.34-.68-.7-1-1A2.63,2.63,0,0,0,5,1.52a2.69,2.69,0,0,0-1.88.81h0L1.22,4.24A4.1,4.1,0,0,0,0,6.81a9.85,9.85,0,0,0,.71,4.11A24.26,24.26,0,0,0,5,18a26.13,26.13,0,0,0,8.67,6.78A13.38,13.38,0,0,0,18.5,26.2h.35A4.17,4.17,0,0,0,22,24.84s0,0,0,0a12.94,12.94,0,0,1,1-1c.24-.22.48-.46.72-.71a2.77,2.77,0,0,0,.84-1.92,2.68,2.68,0,0,0-.85-1.89Zm2,5.82s0,0,0,0c-.22.24-.44.45-.68.68a12.51,12.51,0,0,0-1.06,1.11,2.7,2.7,0,0,1-2.08.88H18.6a12,12,0,0,1-4.31-1.3A24.33,24.33,0,0,1,6.12,17a22.29,22.29,0,0,1-4-6.63,7.76,7.76,0,0,1-.62-3.47,2.52,2.52,0,0,1,.76-1.64L4.17,3.4A1.27,1.27,0,0,1,5,3a1.18,1.18,0,0,1,.81.39h0c.34.32.66.65,1,1l.52.54L8.86,6.45a1.06,1.06,0,0,1,0,1.72l-.47.47C7.92,9.12,7.48,9.56,7,10l0,0a1.15,1.15,0,0,0-.29,1.26l0,.05a12.14,12.14,0,0,0,1.79,2.91h0a20.48,20.48,0,0,0,4.92,4.47,7.58,7.58,0,0,0,.68.37c.2.1.38.19.54.29l.07,0a1.28,1.28,0,0,0,.55.14,1.19,1.19,0,0,0,.84-.38L18,17.28a1.3,1.3,0,0,1,.84-.41,1.1,1.1,0,0,1,.79.4h0l3.05,3A1.09,1.09,0,0,1,22.68,22.06Z"/><path class="cls-1" d="M14.15,6.24a6.91,6.91,0,0,1,3.81,2A7,7,0,0,1,20,12a.73.73,0,0,0,.73.62h.13a.74.74,0,0,0,.61-.86,8.61,8.61,0,0,0-7-7,.77.77,0,0,0-.87.61A.75.75,0,0,0,14.15,6.24Z"/><path class="cls-1" d="M26.16,11.56A14.18,14.18,0,0,0,14.61,0a.76.76,0,0,0-.86.61.75.75,0,0,0,.62.86A12.56,12.56,0,0,1,21.17,5a12.48,12.48,0,0,1,3.52,6.8.75.75,0,0,0,.74.62h.13A.73.73,0,0,0,26.16,11.56Z"/></g></g></g></g></svg>